<svg width="19" height="22" viewBox="0 0 19 22" fill="none" xmlns="http://www.w3.org/2000/svg">
<g id="vuesax/linear/mobile">
<g id="mobile">
<path id="Vector" d="M17.5 6V16C17.5 20 16.5 21 12.5 21H6.5C2.5 21 1.5 20 1.5 16V6C1.5 2 2.5 1 6.5 1H12.5C16.5 1 17.5 2 17.5 6Z" stroke="#002F6C" stroke-width="1.5" stroke-linecap="round" stroke-linejoin="round"/>
<path id="Vector_2" d="M11.5 4.5H7.5" stroke="#002F6C" stroke-width="1.5" stroke-linecap="round" stroke-linejoin="round"/>
<path id="Vector_3" d="M9.5002 18.1C10.3562 18.1 11.0502 17.406 11.0502 16.55C11.0502 15.694 10.3562 15 9.5002 15C8.64415 15 7.9502 15.694 7.9502 16.55C7.9502 17.406 8.64415 18.1 9.5002 18.1Z" stroke="#002F6C" stroke-width="1.5" stroke-linecap="round" stroke-linejoin="round"/>
</g>
</g>
</svg>
