<svg width="184" height="54" viewBox="0 0 184 54" fill="none" xmlns="http://www.w3.org/2000/svg">
<g clip-path="url(#clip0_401_27191)">
<path d="M3.37077 41.0517V53.4138C3.37077 53.6181 3.20303 53.7852 3.00334 53.7852H0.36743C0.16774 53.7852 0 53.6181 0 53.4138V41.0517C0 40.8474 0.16774 40.6804 0.36743 40.6804H3.00334C3.20303 40.6804 3.37077 40.8474 3.37077 41.0517ZM184 17.1707C184 20.3561 183.246 23.2656 181.716 25.8834C180.185 28.4985 178.108 30.5673 175.459 32.0472C172.788 33.5484 169.841 34.299 166.622 34.299C163.403 34.299 160.458 33.5484 157.809 32.0472C155.159 30.5699 153.083 28.4985 151.576 25.8834C150.045 23.2683 149.294 20.3561 149.294 17.1707C149.294 13.9854 150.047 11.052 151.576 8.43684C153.083 5.82171 155.159 3.75029 157.809 2.25177C160.458 0.750589 163.403 0 166.622 0C169.841 0 172.785 0.750589 175.459 2.25177C178.108 3.75295 180.185 5.82171 181.716 8.43684C183.246 11.052 184 13.9641 184 17.1707ZM177.676 17.1707C177.676 14.0331 176.625 11.3941 174.503 9.2776C172.378 7.1611 169.777 6.09224 166.648 6.09224C160.53 5.95432 155.484 11.0281 155.62 17.1681C155.62 20.2845 156.669 22.8996 158.794 25.0161C160.916 27.13 163.52 28.2015 166.648 28.2015C169.777 28.2015 172.378 27.1326 174.503 25.0161C176.625 22.8996 177.676 20.2845 177.676 17.1681V17.1707ZM143.54 26.8833C142.283 25.5174 140.366 25.1779 138.745 26.1778C136.918 27.5198 134.863 28.2015 132.557 28.2015C129.429 28.2015 126.827 27.1565 124.748 25.04C122.647 22.9473 121.598 20.3322 121.598 17.1707C121.598 14.0092 122.65 11.3702 124.748 9.25638C126.825 7.13988 129.429 6.09489 132.557 6.09489C134.748 6.09489 136.804 6.7553 138.7 8.09735C139.453 8.52967 140.276 8.6888 141.165 8.52966C142.054 8.39175 142.832 7.9833 143.45 7.32554L144.826 5.77132C144.914 5.67318 144.917 5.522 144.826 5.42387C143.434 3.84312 141.655 2.53821 139.498 1.54892C137.238 0.522495 134.953 0 132.602 0C129.359 0 126.415 0.750589 123.789 2.2279C121.14 3.72908 119.063 5.79784 117.556 8.41562C116.025 11.0546 115.275 13.9641 115.275 17.1734C115.275 20.3826 116.028 23.2921 117.556 25.9073C119.063 28.5224 121.14 30.5938 123.789 32.0711C126.415 33.5484 129.359 34.299 132.602 34.299C134.999 34.299 137.328 33.7765 139.589 32.7289C141.772 31.7184 143.569 30.3922 144.946 28.7664C145.031 28.6656 145.026 28.5171 144.938 28.419L143.54 26.8833ZM108.126 0.453536H103.677C101.85 0.453536 101.006 0.999902 100.093 2.7053L90.9603 19.8999C90.6647 20.4675 90.481 21.2181 90.3905 22.1517H90.3213C90.252 21.2658 90.071 20.5152 89.7967 19.8999L80.619 2.7053C79.7057 0.999902 78.8617 0.453536 77.0565 0.453536H72.5781C72.2906 0.453536 72.0563 0.686935 72.0563 0.973379V33.3442C72.0563 33.6306 72.2906 33.864 72.5781 33.864H77.8579C78.1455 33.864 78.3798 33.6306 78.3798 33.3442V12.2137C78.3558 11.4631 78.1961 10.5772 77.9005 9.59853H77.9697L87.5815 28.2492C88.1753 29.4109 89.1098 29.9785 90.3665 29.9785C91.6232 29.9785 92.5365 29.4109 93.1302 28.2492L102.742 9.59853H102.811C102.492 10.6674 102.332 11.532 102.332 12.2137V33.3469C102.332 33.6333 102.566 33.8667 102.854 33.8667H108.134C108.421 33.8667 108.656 33.6333 108.656 33.3469V0.981336C108.656 0.689587 108.419 0.456189 108.128 0.456189L108.126 0.453536ZM36.4422 33.8667H32.3445C32.1555 33.8667 32.0277 33.6731 32.1049 33.5007L46.4666 0.766503C46.5491 0.578193 46.7382 0.453536 46.9459 0.453536H51.8556C52.0633 0.453536 52.2523 0.57554 52.3348 0.766503L66.6966 33.5007C66.7711 33.6731 66.646 33.8667 66.4569 33.8667H62.338C60.855 33.8667 59.553 33.0471 58.9805 31.6149L56.9703 27.0212H41.8311L39.8449 31.6149C39.2272 33.0471 37.9731 33.8667 36.4422 33.8667ZM44.1129 21.7671H54.6619L50.4604 12.0784C49.8427 10.6462 49.5232 9.28026 49.5232 7.93821H49.2942C49.2703 9.28026 48.9508 10.6435 48.3357 12.0784L44.1103 21.7671H44.1129ZM5.80167 0.477407H0.521857C0.234303 0.477407 0 0.710805 0 0.997249V33.3442C0 33.6306 0.234303 33.864 0.521857 33.864H5.80167C6.08922 33.864 6.32353 33.6306 6.32353 33.3442V0.997249C6.32353 0.710805 6.08922 0.477407 5.80167 0.477407ZM16.8272 18.1945C16.3693 17.558 15.48 16.8525 14.6812 16.7384V16.6933C15.4347 16.6244 16.3027 15.9878 16.782 15.2611L27.3443 0.869941C27.4721 0.697544 27.3469 0.453536 27.1313 0.453536H21.7583C20.5947 0.432318 19.6815 0.954813 18.9945 1.9998L9.67832 15.0781L9.64371 15.1285C8.96476 16.1072 9.026 17.3856 9.71294 18.3589C9.71826 18.3642 9.72093 18.3695 9.72359 18.3749L19.6788 32.1799C20.3418 33.1798 21.5506 33.8614 22.762 33.8614H28.0152C28.2309 33.8614 28.356 33.6174 28.2256 33.4423L16.8246 18.1892L16.8272 18.1945ZM108.277 40.508H96.6608C96.4584 40.508 96.2907 40.6777 96.2907 40.8819V42.9268C96.2907 43.1284 96.4611 43.3034 96.6608 43.3034H100.761V53.4059C100.761 53.6128 100.931 53.7799 101.136 53.7799H103.802C104.004 53.7799 104.177 53.6101 104.177 53.4059V43.3034H108.272C108.474 43.3034 108.648 43.1284 108.648 42.9268V40.8819C108.648 40.675 108.472 40.508 108.272 40.508H108.277ZM80.0732 44.0275C80.0732 43.4228 80.6456 42.7491 82.2511 42.7491C83.7155 42.7491 84.871 43.3857 85.4834 43.7119C85.7843 43.871 85.9813 43.7994 86.0958 43.5501L86.8387 41.9402C86.9798 41.6352 86.8067 41.4707 86.647 41.3858C85.795 40.9058 84.272 40.2427 82.0647 40.2427C78.6088 40.2427 76.6518 41.9879 76.6518 44.3829C76.6518 49.0244 83.609 47.8202 83.609 50.1383C83.609 50.9711 82.773 51.3451 81.3805 51.3451C79.7377 51.3451 78.7978 50.8385 77.6396 50.263C77.384 50.1436 77.2029 50.2364 77.0991 50.4645L76.3243 52.1567C76.2205 52.3848 76.2764 52.581 76.5107 52.7216C77.7514 53.4059 79.3676 54 81.4098 54C84.469 54 87.2301 52.6898 87.2301 49.7405C87.2301 45.0247 80.0705 46.0459 80.0705 44.0275H80.0732ZM67.2424 51.0825H60.0669V48.2817H66.1507C66.385 48.2817 66.5288 48.1465 66.5288 47.9131V46.1493C66.5288 45.9159 66.3877 45.7753 66.1507 45.7753H60.0669V43.208H67.0241C67.2584 43.208 67.3995 43.0727 67.3995 42.8393V40.8872C67.3995 40.6538 67.2584 40.5133 67.0241 40.5133H57.0262C56.8186 40.5133 56.6508 40.683 56.6508 40.8872V53.4112C56.6508 53.6181 56.8212 53.7852 57.0262 53.7852H67.245C67.4794 53.7852 67.6205 53.6446 67.6205 53.4112V51.4591C67.6205 51.2257 67.4794 51.0905 67.245 51.0905L67.2424 51.0825ZM47.6301 40.508H44.9916C44.7626 40.508 44.5922 40.622 44.5043 40.8342L41.075 49.1676L37.5791 40.8342C37.4912 40.6114 37.3341 40.508 37.1051 40.508H34.1896C33.8835 40.508 33.737 40.6989 33.8728 41.0039L39.6718 53.5915C39.765 53.7984 39.9221 53.9072 40.1564 53.9072H41.73C41.9589 53.9072 42.1187 53.7984 42.2145 53.5915L47.955 41.0039C48.0908 40.6989 47.9337 40.508 47.6275 40.508H47.6301ZM25.2622 40.508H22.6955C22.4292 40.508 22.2695 40.6644 22.2695 40.927V47.9502L14.0289 40.569C13.8585 40.4178 13.7014 40.3833 13.4991 40.3833H12.8068C12.5459 40.3833 12.3861 40.5451 12.3861 40.8077V53.3635C12.3861 53.6234 12.5432 53.7825 12.8068 53.7825H15.3788C15.6397 53.7825 15.7995 53.626 15.7995 53.3635V46.3562L24.0454 53.7215C24.2105 53.8727 24.3729 53.9072 24.5699 53.9072H25.2622C25.5284 53.9072 25.6882 53.7454 25.6882 53.4828V40.927C25.6882 40.6644 25.5284 40.508 25.2622 40.508Z" fill="#002F6C"/>
</g>
<defs>
<clipPath id="clip0_401_27191">
<rect width="184" height="54" fill="white"/>
</clipPath>
</defs>
</svg>
