<svg width="24" height="24" viewBox="0 0 24 24" fill="none" xmlns="http://www.w3.org/2000/svg">
<g id="Used/Outline/Services">
<g id="Services">
<g id="Group">
<path id="Vector" d="M20.4851 15.8175L20.7651 16.3875C20.9051 16.6675 21.2551 16.9275 21.5651 16.9875L21.9451 17.0475C23.0851 17.2375 23.3551 18.0775 22.5351 18.9075L22.1851 19.2575C21.9551 19.4975 21.8251 19.9575 21.8951 20.2775L21.9451 20.4875C22.2551 21.8675 21.5251 22.3975 20.3251 21.6775L20.0651 21.5275C19.7551 21.3475 19.2551 21.3475 18.9451 21.5275L18.6851 21.6775C17.4751 22.4075 16.7451 21.8675 17.0651 20.4875L17.1151 20.2775C17.1851 19.9575 17.0551 19.4975 16.8251 19.2575L16.4751 18.9075C15.6551 18.0775 15.9251 17.2375 17.0651 17.0475L17.4451 16.9875C17.7451 16.9375 18.1051 16.6675 18.2451 16.3875L18.5251 15.8175C19.0651 14.7275 19.9451 14.7275 20.4851 15.8175Z" stroke="#002F6C" stroke-width="1.5" stroke-linecap="round" stroke-linejoin="round"/>
</g>
<g id="Group_2">
<g id="Group_3">
<path id="Vector_2" d="M3.16992 7.44043L11.9999 12.5504L20.7699 7.4704" stroke="#002F6C" stroke-width="1.5" stroke-linecap="round" stroke-linejoin="round"/>
<path id="Vector_3" d="M12 21.61V12.54" stroke="#002F6C" stroke-width="1.5" stroke-linecap="round" stroke-linejoin="round"/>
</g>
<path id="Vector_4" d="M21.6096 13V9.17C21.6096 7.79 20.6196 6.11002 19.4096 5.44002L14.0696 2.48C12.9296 1.84 11.0696 1.84 9.92963 2.48L4.58963 5.44002C3.37963 6.11002 2.38965 7.79 2.38965 9.17V14.83C2.38965 16.21 3.37963 17.89 4.58963 18.56L9.92963 21.52C11.0696 22.16 12.9296 22.16 14.0696 21.52" stroke="#002F6C" stroke-width="1.5" stroke-linecap="round" stroke-linejoin="round"/>
</g>
</g>
</g>
</svg>
